Coordinates
version=1
nRows=14
nColumns=24
inDegrees=yes

Units are S.I. units (second, meters, Newtons, ...)
Angles are in degrees.

endheader
time	pelvis_tilt	pelvis_list	pelvis_rotation	pelvis_tx	pelvis_ty	pelvis_tz	hip_flexion_r	hip_adduction_r	hip_rotation_r	knee_angle_r	ankle_angle_r	subtalar_angle_r	mtp_angle_r	hip_flexion_l	hip_adduction_l	hip_rotation_l	knee_angle_l	ankle_angle_l	subtalar_angle_l	mtp_angle_l	lumbar_extension	lumbar_bending	lumbar_rotation
      0.33800000	      6.54161397	     -2.93341905	     -4.89593518	     -0.28005482	      1.01297564	      0.21496168	     -5.49417178	      4.59626857	    -11.92796607	     -8.06784080	      9.11429756	      7.50950348	     12.67661190	     22.06132361	     -8.92015117	    -13.26178757	    -55.43658493	      8.44004439	      3.06938092	     34.16340338	    -15.05358584	      3.93595378	      5.02581514
      0.34200000	      6.55152720	     -2.90991838	     -4.93024519	     -0.27463376	      1.01294758	      0.21533383	     -6.04055782	      4.58713883	    -11.97275657	     -7.73784893	      9.25769263	      7.73736720	     12.24087264	     22.22376038	     -8.78111167	    -13.34090425	    -54.29372610	      8.44471142	      2.92521156	     33.82904029	    -15.02058336	      3.87797966	      5.15413886
      0.34600000	      6.55615805	     -2.89689837	     -4.96037639	     -0.26907699	      1.01281378	      0.21570367	     -6.57208483	      4.58890470	    -12.01643116	     -7.42520577	      9.40656112	      7.95464938	     11.77423007	     22.38184451	     -8.65120255	    -13.42074712	    -53.10633642	      8.42632072	      2.78020558	     33.42019726	    -14.97723002	      3.83256186	      5.27385008
      0.35000000	      6.55552091	     -2.89438282	     -4.98641812	     -0.26341810	      1.01257833	      0.21606953	     -7.09107620	      4.60142976	    -12.05894299	     -7.12983783	      9.56099068	      8.16172299	     11.27995455	     22.53452870	     -8.53050419	    -13.50162866	    -51.87707646	      8.38782321	      2.63773997	     32.94644244	    -14.92529865	      3.79960598	      5.38529042
      0.35400000	      6.54838601	     -2.90199428	     -5.00813552	     -0.25774172	      1.01225241	      0.21642695	     -7.59862126	      4.62435865	    -12.10033373	     -6.85109323	      9.72092743	      8.35912735	     10.76186876	     22.67777191	     -8.41887365	    -13.58386655	    -50.61076058	      8.33209234	      2.50109922	     32.41778818	    -14.86646363	      3.77880313	      5.48885443
      0.35800000	      6.53408040	     -2.91911687	     -5.02527485	     -0.25212791	      1.01184858	      0.21677165	     -8.09471554	      4.65717508	    -12.14073273	     -6.58786651	      9.88621591	      8.54755255	     10.22429903	     22.80647659	     -8.31597733	    -13.66792557	    -49.31306823	      8.26187526	      2.37345832	     31.84444845	    -14.80232143	      3.76967071	      5.58498149
      0.36200000	      6.51360972	     -2.94504831	     -5.03777484	     -0.24661466	      1.01137685	      0.21710152	     -8.57859772	      4.69926690	    -12.18036297	     -6.33878197	     10.05665350	      8.72781957	      9.67201593	     22.91603172	     -8.22134290	    -13.75453743	    -47.98936550	      8.17973570	      2.25786928	     31.23661491	    -14.73440880	      3.77160612	      5.67415003
      0.36600000	      6.48957706	     -2.97909348	     -5.04578472	     -0.24119471	      1.01084444	      0.21741701	     -9.04917797	      4.74999107	    -12.21955554	     -6.10238715	     10.23205296	      8.90085726	      9.11016454	     23.00286261	     -8.13441770	    -13.84474870	    -46.64402864	      8.08797575	      2.15724626	     30.60425489	    -14.66419458	      3.78394890	      5.75687304
      0.37000000	      6.46516893	     -3.02060538	     -5.04952643	     -0.23583920	      1.01025841	      0.21771994	     -9.50547936	      4.80873268	    -12.25876668	     -5.87733237	     10.41230389	      9.06767696	      8.54418567	     23.06414146	     -8.05462481	    -13.93989964	    -45.28024735	      7.98854549	      2.07434846	     29.95693393	    -14.59305021	      3.80604325	      5.83369399
      0.37400000	      6.44284576	     -3.06900462	     -5.04910928	     -0.23053003	      1.00962880	      0.21801194	     -9.94706083	      4.87495169	    -12.29858891	     -5.66254049	     10.59742177	      9.22934481	      7.97972914	     23.09719793	     -7.98141028	    -14.04156507	    -43.90006846	      7.88296072	      2.01176234	     29.30366441	    -14.52221792	      3.83729268	      5.90518252
      0.37800000	      6.42340560	     -3.12380978	     -5.04441410	     -0.22528194	      1.00896980	      0.21829315	    -10.37440994	      4.94821179	    -12.33974873	     -5.45737893	     10.78757400	      9.38695229	      7.42256081	     23.09921797	     -7.91427681	    -14.15149324	    -42.50440530	      7.77224934	      1.97188462	     28.65278120	    -14.45279698	      3.87719886	      5.97192927
      0.38200000	      6.40589431	     -3.18469633	     -5.03512525	     -0.22014142	      1.00829762	      0.21856211	    -10.78926387	      5.02818876	    -12.38308581	     -5.26182593	     10.98307596	      9.54158591	      6.87846530	     23.06761263	     -7.85279903	    -14.27156622	    -41.09284030	      7.65694103	      1.95690703	     28.01184443	    -14.38575945	      3.92537949	      6.03453925
      0.38600000	      6.38849163	     -3.25157761	     -5.02092012	     -0.21515932	      1.00762488	      0.21881671	    -11.19476293	      5.11465989	    -12.42951228	     -5.07658604	     11.18435543	      9.69429785	      6.35314668	     23.00107132	     -7.79661669	    -14.40378316	    -39.66323492	      7.53710349	      1.96880156	     27.38756900	    -14.32199300	      3.98156388	      6.09362356
      0.39000000	      6.37007077	     -3.32467590	     -5.00174503	     -0.21034725	      1.00695352	      0.21905605	    -11.59531095	      5.20747954	    -12.47995580	     -4.90308533	     11.39188976	      9.84608026	      5.85212973	     22.90089261	     -7.74540259	    -14.55024417	    -38.21137384	      7.41241645	      2.00930317	     26.78577971	    -14.26235242	      4.04556864	      6.14978937
